<svg enable-background="new 0 0 1792 1792" viewBox="0 0 1792 1792" xmlns="http://www.w3.org/2000/svg"><path d="m1767.5 121.6c16.3 11.7 24.5 27.1 24.5 46.4v1232c0 11.7-3.2 22.2-9.6 31.5s-14.9 16-25.4 20.1l-560 224c-14 6.4-28 6.4-42 0l-539-215.2-539 215.2c-5.8 2.9-12.8 4.4-21 4.4-11.1 0-21.6-3.2-31.5-9.6-16.3-11.7-24.5-27.2-24.5-46.4v-1232c0-11.7 3.2-22.2 9.6-31.5s14.9-16 25.4-20.1l560-224c14-6.4 28-6.4 42 0l539 215.2 539-215.2c18.7-7.6 36.2-5.9 52.5 5.2z"/><g fill="#fff"><path d="m588 1351-476 189.9v-1111.3l476-189.8z"/><path d="m1680 1362.4-476 189.8v-1111.2l476-189.9z"/><path d="m1148 1552.2-504-201.2v-1111.2l504 201.2z"/></g></svg>